<svg width="32" height="32" viewBox="0 0 32 32" fill="none" xmlns="http://www.w3.org/2000/svg">
<g clip-path="url(#clip0_25_74)">
<rect x="-39" y="-38" width="83" height="83" fill="#FADD07"/>
<path d="M5.3334 16.6666C5.67324 16.667 6.00011 16.7971 6.24723 17.0304C6.49434 17.2637 6.64305 17.5826 6.66296 17.9218C6.68288 18.2611 6.5725 18.5951 6.35438 18.8557C6.13626 19.1163 5.82686 19.2838 5.4894 19.324L5.3334 19.3333H4.00007C3.66023 19.3329 3.33336 19.2028 3.08624 18.9695C2.83913 18.7362 2.69042 18.4174 2.67051 18.0781C2.65059 17.7388 2.76097 17.4048 2.97909 17.1442C3.19721 16.8836 3.50661 16.7161 3.84407 16.676L4.00007 16.6666H5.3334Z" fill="#231E21" stroke="#231E21" stroke-width="0.5" stroke-linecap="round" stroke-linejoin="round"/>
<path d="M16 4.66663C16.3265 4.66667 16.6417 4.78657 16.8858 5.00358C17.1298 5.22059 17.2857 5.51962 17.324 5.84396L17.3333 5.99996V7.33329C17.3329 7.67313 17.2028 8 16.9695 8.24712C16.7362 8.49423 16.4174 8.64294 16.0781 8.66285C15.7388 8.68277 15.4048 8.57239 15.1442 8.35427C14.8836 8.13615 14.7161 7.82675 14.676 7.48929L14.6666 7.33329V5.99996C14.6666 5.64634 14.8071 5.3072 15.0572 5.05715C15.3072 4.8071 15.6463 4.66663 16 4.66663Z" fill="#231E21" stroke="#231E21" stroke-width="0.5" stroke-linecap="round" stroke-linejoin="round"/>
<path d="M28.0001 16.6666C28.34 16.667 28.6669 16.7971 28.914 17.0304C29.1611 17.2637 29.3098 17.5826 29.3297 17.9218C29.3496 18.2611 29.2393 18.5951 29.0211 18.8557C28.803 19.1163 28.4936 19.2838 28.1562 19.324L28.0001 19.3333H26.6668C26.327 19.3329 26.0001 19.2028 25.753 18.9695C25.5059 18.7362 25.3572 18.4174 25.3373 18.0781C25.3173 17.7388 25.4277 17.4048 25.6458 17.1442C25.864 16.8836 26.1734 16.7161 26.5108 16.676L26.6668 16.6666H28.0001Z" fill="#231E21" stroke="#231E21" stroke-width="0.5" stroke-linecap="round" stroke-linejoin="round"/>
<path d="M6.52417 8.52427C6.75376 8.2947 7.05923 8.15679 7.38326 8.13642C7.7073 8.11604 8.02763 8.2146 8.28417 8.4136L8.4095 8.52427L9.34284 9.4576C9.58197 9.69755 9.7208 10.0195 9.73114 10.3581C9.74148 10.6967 9.62255 11.0266 9.39851 11.2806C9.17446 11.5347 8.8621 11.694 8.52487 11.7261C8.18764 11.7583 7.85083 11.6608 7.58284 11.4536L7.4575 11.3429L6.52417 10.4096C6.27421 10.1596 6.13379 9.82049 6.13379 9.46694C6.13379 9.11339 6.27421 8.77431 6.52417 8.52427Z" fill="#231E21" stroke="#231E21" stroke-width="0.5" stroke-linecap="round" stroke-linejoin="round"/>
<path d="M23.5907 8.52394C23.8307 8.28481 24.1526 8.14597 24.4912 8.13563C24.8298 8.12529 25.1597 8.24422 25.4138 8.46827C25.6679 8.69231 25.8271 9.00467 25.8593 9.3419C25.8914 9.67913 25.7939 10.0159 25.5867 10.2839L25.4761 10.4093L24.5427 11.3426C24.3028 11.5817 23.9808 11.7206 23.6422 11.7309C23.3036 11.7412 22.9738 11.6223 22.7197 11.3983C22.4656 11.1742 22.3063 10.8619 22.2742 10.5246C22.2421 10.1874 22.3395 9.85059 22.5467 9.5826L22.6574 9.45727L23.5907 8.52394Z" fill="#231E21" stroke="#231E21" stroke-width="0.5" stroke-linecap="round" stroke-linejoin="round"/>
<path d="M17.5238 24.7142C17.7258 24.7142 17.9196 24.7744 18.0625 24.8816C18.2054 24.9888 18.2857 25.1341 18.2857 25.2857C18.2857 25.7403 18.0448 26.1764 17.6162 26.4978C17.1875 26.8193 16.6062 26.9999 15.9999 26.9999C15.3937 26.9999 14.8124 26.8193 14.3837 26.4978C13.955 26.1764 13.7142 25.7403 13.7142 25.2857C13.7143 25.1457 13.7828 25.0106 13.9068 24.906C14.0308 24.8014 14.2017 24.7346 14.387 24.7182L14.4761 24.7142H17.5238Z" fill="#231E21"/>
<path d="M16.0001 12.2858C17.1994 12.2858 18.3683 12.6563 19.3413 13.3448C20.3142 14.0333 21.0418 15.0049 21.4211 16.122C21.8004 17.2391 21.812 18.445 21.4544 19.569C21.0968 20.693 20.3881 21.678 19.4286 22.3845C19.2974 22.4813 19.1428 22.5431 18.9801 22.564L18.8572 22.5715H13.1429C12.9368 22.5715 12.7363 22.5059 12.5715 22.3845C11.612 21.678 10.9033 20.693 10.5457 19.569C10.1881 18.445 10.1997 17.2391 10.579 16.122C10.9583 15.0049 11.6859 14.0333 12.6589 13.3448C13.6318 12.6563 14.8007 12.2858 16.0001 12.2858Z" fill="#231E21"/>
</g>
<defs>
<clipPath id="clip0_25_74">
<rect width="32" height="32" rx="2" fill="white"/>
</clipPath>
</defs>
</svg>
